HIERARCHY
ROOT SpineBase
{
  OFFSET 0.000000 0.000000 0.000000
  CHANNELS 6 Xposition Yposition Zposition Zrotation Xrotation Yrotation
  JOINT SpineMid
  {
    OFFSET -0.000000 20.072536 0.000000
    CHANNELS 3 Zrotation Xrotation Yrotation
    JOINT SpineShoulder
    {
      OFFSET -0.670841 15.040324 0.204861
      CHANNELS 3 Zrotation Xrotation Yrotation
      JOINT Neck
      {
        OFFSET -0.730405 5.135577 0.057247
        CHANNELS 3 Zrotation Xrotation Yrotation
        JOINT Head
        {
          OFFSET 4.528854 7.267228 2.358831
          CHANNELS 3 Zrotation Xrotation Yrotation
          End Site
          {
            OFFSET 0 0 0
          }
        }
      }
      JOINT ShoulderLeft
      {
        OFFSET -4.409726 -0.549663 12.476745
        CHANNELS 3 Zrotation Xrotation Yrotation
        JOINT ElbowLeft
        {
          OFFSET 6.472869 -8.290702 -23.806498
          CHANNELS 3 Zrotation Xrotation Yrotation
          JOINT WristLeft
          {
            OFFSET 16.655871 -7.725969 -18.025274
            CHANNELS 3 Zrotation Xrotation Yrotation
            JOINT HandLeft
            {
              OFFSET 3.085652 -4.642773 -0.485860
              CHANNELS 3 Zrotation Xrotation Yrotation
              JOINT HandTipLeft
              {
                OFFSET 0.758330 -0.555052 -2.867002
                CHANNELS 3 Zrotation Xrotation Yrotation
                End Site
                {
                  OFFSET 0 0 0
                }
              }
              JOINT ThumbLeft
              {
                OFFSET -0.051232 -0.566577 -0.143437
                CHANNELS 3 Zrotation Xrotation Yrotation
                End Site
                {
                  OFFSET 0 0 0
                }
              }
            }
          }
        }
      }
      JOINT ShoulderRight
      {
        OFFSET 2.872991 -7.591536 -18.664965
        CHANNELS 3 Zrotation Xrotation Yrotation
        JOINT ElbowRight
        {
          OFFSET -1.541203 17.362009 7.420849
          CHANNELS 3 Zrotation Xrotation Yrotation
          JOINT WristRight
          {
            OFFSET 1.736603 13.375179 12.702180
            CHANNELS 3 Zrotation Xrotation Yrotation
            JOINT HandRight
            {
              OFFSET 0.875054 -0.098745 3.994293
              CHANNELS 3 Zrotation Xrotation Yrotation
              JOINT HandTipRight
              {
                OFFSET 0.212620 0.404873 0.845134
                CHANNELS 3 Zrotation Xrotation Yrotation
                End Site
                {
                  OFFSET 0 0 0
                }
              }
              JOINT ThumbRight
              {
                OFFSET -0.570564 0.294834 -1.482797
                CHANNELS 3 Zrotation Xrotation Yrotation
                End Site
                {
                  OFFSET 0 0 0
                }
              }
            }
          }
        }
      }
    }
  }
  JOINT HipLeft
  {
    OFFSET -1.418818 3.704466 -16.523212
    CHANNELS 3 Zrotation Xrotation Yrotation
    JOINT KneeLeft
    {
      OFFSET 29.354800 17.166024 -9.200357
      CHANNELS 3 Zrotation Xrotation Yrotation
      JOINT AnkleLeft
      {
        OFFSET -17.203239 -17.454132 -0.202063
        CHANNELS 3 Zrotation Xrotation Yrotation
        JOINT FootLeft
        {
          OFFSET 1.829788 -4.311142 -6.001207
          CHANNELS 3 Zrotation Xrotation Yrotation
          End Site
          {
            OFFSET 0 0 0
          }
        }
      }
    }
  }
  JOINT HipRight
  {
    OFFSET -0.178486 -1.673876 12.290550
    CHANNELS 3 Zrotation Xrotation Yrotation
    JOINT KneeRight
    {
      OFFSET -3.494274 8.208749 -40.101708
      CHANNELS 3 Zrotation Xrotation Yrotation
      JOINT AnkleRight
      {
        OFFSET 18.709499 -10.404556 6.182204
        CHANNELS 3 Zrotation Xrotation Yrotation
        JOINT FootRight
        {
          OFFSET -11.624483 7.506671 0.198340
          CHANNELS 3 Zrotation Xrotation Yrotation
          End Site
          {
            OFFSET 0 0 0
          }
        }
      }
    }
  }
}
MOTION
Frames: 5
Frame Time: 0.033333
129.109882 14.174131 346.057218 0.000000 0.000000 -87.535137 -0.000000 -0.000000 87.535137 -0.000000 0.000000 0.000000 -0.000000 0.000000 0.000000 0.000000 0.000000 0.000000 -0.000000 0.000000 0.000000 -0.000000 0.000000 0.000000 -0.000000 0.000000 0.000000 -0.000000 0.000000 0.000000 0.000000 0.000000 0.000000 0.000000 0.000000 0.000000 -0.000000 0.000000 0.000000 -0.000000 0.000000 0.000000 -0.000000 0.000000 0.000000 -0.000000 0.000000 0.000000 0.000000 0.000000 0.000000 0.000000 0.000000 0.000000 -0.000000 -0.000000 87.535137 -0.000000 0.000000 0.000000 -0.000000 0.000000 0.000000 0.000000 0.000000 0.000000 -0.000000 -0.000000 87.535137 -0.000000 0.000000 0.000000 -0.000000 0.000000 0.000000 0.000000 0.000000 0.000000
131.321830 13.666466 344.351771 4.466668 3.455640 -87.230815 0.380481 -0.993051 87.174180 -1.755555 -1.123481 0.133968 -1.574919 -4.331076 1.200519 0.000000 0.000000 0.000000 -1.383027 -2.654033 -1.929595 0.766807 1.228510 -0.054042 -1.091394 -2.010052 0.678690 1.016059 -0.315191 -7.426397 0.000000 0.000000 0.000000 0.000000 0.000000 0.000000 -1.120666 -1.274289 -0.471404 -0.194775 15.143172 -2.066874 -1.502782 -8.001998 -6.379859 2.507389 30.160987 -10.700513 0.000000 0.000000 0.000000 0.000000 0.000000 0.000000 1.627592 2.426495 87.647042 0.887383 -12.595670 11.651337 -20.483709 5.343733 9.178027 0.000000 0.000000 0.000000 -6.727884 -4.638000 89.012598 -14.907458 -3.708579 -3.825873 16.093846 -3.348012 3.268051 0.000000 0.000000 0.000000
133.203070 13.276562 342.631563 8.272146 6.877070 -85.926232 0.673561 -1.736804 85.577863 -3.254447 -2.134492 0.229687 -3.063134 -8.541596 2.210655 0.000000 0.000000 0.000000 -2.422035 -4.844325 -4.019957 1.186890 1.731989 0.013373 -2.175522 -3.362460 1.737209 1.682170 -2.410575 -16.253660 0.000000 0.000000 0.000000 0.000000 0.000000 0.000000 -2.382815 -2.899033 -0.894168 0.592850 30.288563 -4.599822 -1.624279 -11.352656 -18.499715 -0.994302 36.864025 -4.731101 0.000000 0.000000 0.000000 0.000000 0.000000 0.000000 3.605494 4.027375 86.540682 3.527796 -20.756220 22.096625 -35.796585 9.813792 22.013178 0.000000 0.000000 0.000000 -13.841442 -8.357371 88.589830 -24.950697 -7.054385 -10.124030 27.875950 -5.616387 6.208452 0.000000 0.000000 0.000000
134.753602 13.004419 340.896594 11.433531 10.248564 -83.278177 0.861974 -2.290105 82.470996 -4.458152 -3.001740 0.301912 -4.476532 -12.700384 3.062994 0.000000 0.000000 0.000000 -3.076457 -6.582355 -6.260423 1.284451 1.489012 0.234440 -3.334886 -3.908964 3.289189 1.548131 -6.220278 -25.326665 0.000000 0.000000 0.000000 0.000000 0.000000 0.000000 -3.799897 -4.869995 -1.288799 2.479966 43.164718 -7.608443 2.127496 -10.097294 -34.070653 -8.969204 29.028457 11.091109 0.000000 0.000000 0.000000 0.000000 0.000000 0.000000 6.054217 4.350113 83.875973 6.827805 -25.134991 30.254477 -45.702237 13.781794 33.099200 0.000000 0.000000 0.000000 -20.950151 -10.549348 86.405553 -31.261620 -9.863119 -17.220188 36.592023 -7.298087 8.041773 0.000000 0.000000 0.000000
135.973424 12.850036 339.146864 13.979259 13.579552 -78.807022 0.940135 -2.716728 77.437235 -5.345454 -3.704320 0.368432 -5.827124 -16.860815 3.781165 0.000000 0.000000 0.000000 -3.295923 -7.876605 -8.635567 1.089702 0.465725 0.624306 -4.691492 -3.484975 5.476317 0.439897 -11.310331 -33.444522 0.000000 0.000000 0.000000 0.000000 0.000000 0.000000 -5.387158 -7.181544 -1.684009 5.466474 53.003350 -11.124427 8.222150 -10.069236 -46.376275 -13.808442 18.961795 23.485632 0.000000 0.000000 0.000000 0.000000 0.000000 0.000000 8.884417 2.984569 79.234504 10.486936 -26.912462 35.970440 -52.486500 18.044367 41.645533 0.000000 0.000000 0.000000 -27.569918 -10.682763 82.677849 -35.086284 -12.236833 -23.995220 43.770824 -9.103778 8.412486 0.000000 0.000000 0.000000
